%TF.GenerationSoftware,KiCad,Pcbnew,7.0.1*%
%TF.CreationDate,2023-09-03T00:34:55+01:00*%
%TF.ProjectId,noise-synth-card,6e6f6973-652d-4737-996e-74682d636172,rev?*%
%TF.SameCoordinates,Original*%
%TF.FileFunction,Soldermask,Top*%
%TF.FilePolarity,Negative*%
%FSLAX46Y46*%
G04 Gerber Fmt 4.6, Leading zero omitted, Abs format (unit mm)*
G04 Created by KiCad (PCBNEW 7.0.1) date 2023-09-03 00:34:55*
%MOMM*%
%LPD*%
G01*
G04 APERTURE LIST*
G04 Aperture macros list*
%AMRoundRect*
0 Rectangle with rounded corners*
0 $1 Rounding radius*
0 $2 $3 $4 $5 $6 $7 $8 $9 X,Y pos of 4 corners*
0 Add a 4 corners polygon primitive as box body*
4,1,4,$2,$3,$4,$5,$6,$7,$8,$9,$2,$3,0*
0 Add four circle primitives for the rounded corners*
1,1,$1+$1,$2,$3*
1,1,$1+$1,$4,$5*
1,1,$1+$1,$6,$7*
1,1,$1+$1,$8,$9*
0 Add four rect primitives between the rounded corners*
20,1,$1+$1,$2,$3,$4,$5,0*
20,1,$1+$1,$4,$5,$6,$7,0*
20,1,$1+$1,$6,$7,$8,$9,0*
20,1,$1+$1,$8,$9,$2,$3,0*%
G04 Aperture macros list end*
%ADD10C,1.100000*%
%ADD11R,2.200000X2.200000*%
%ADD12C,2.200000*%
%ADD13C,3.240000*%
%ADD14R,1.800000X1.800000*%
%ADD15R,0.900000X0.899998*%
%ADD16C,1.800000*%
%ADD17R,0.899998X0.899994*%
%ADD18RoundRect,0.250000X-0.450000X0.325000X-0.450000X-0.325000X0.450000X-0.325000X0.450000X0.325000X0*%
%ADD19R,1.440000X1.440000*%
%ADD20R,1.000000X1.000000*%
%ADD21C,1.440000*%
%ADD22RoundRect,0.284615X0.348079X-0.637084X0.696616X0.204357X-0.348079X0.637084X-0.696616X-0.204357X0*%
%ADD23RoundRect,0.286538X0.345125X-0.639191X0.696017X0.207936X-0.345125X0.639191X-0.696017X-0.207936X0*%
%ADD24R,1.700000X1.700000*%
%ADD25O,1.700000X1.700000*%
%ADD26RoundRect,0.250000X-0.309687X0.493584X-0.567998X-0.130035X0.309687X-0.493584X0.567998X0.130035X0*%
%ADD27RoundRect,0.250000X0.325000X0.450000X-0.325000X0.450000X-0.325000X-0.450000X0.325000X-0.450000X0*%
%ADD28RoundRect,0.250000X0.309687X-0.493584X0.567998X0.130035X-0.309687X0.493584X-0.567998X-0.130035X0*%
%ADD29RoundRect,0.284615X-0.348079X0.637084X-0.696616X-0.204357X0.348079X-0.637084X0.696616X0.204357X0*%
%ADD30RoundRect,0.286538X-0.345125X0.639191X-0.696017X-0.207936X0.345125X-0.639191X0.696017X0.207936X0*%
%ADD31RoundRect,0.150000X0.825000X0.150000X-0.825000X0.150000X-0.825000X-0.150000X0.825000X-0.150000X0*%
%ADD32C,3.200000*%
G04 APERTURE END LIST*
D10*
%TO.C,J5*%
X183515000Y-60198000D03*
X183515000Y-57658000D03*
D11*
X180975000Y-60198000D03*
D12*
X180975000Y-57658000D03*
%TD*%
D10*
%TO.C,J3*%
X104775000Y-71120000D03*
X104775000Y-73660000D03*
D11*
X107315000Y-71120000D03*
D12*
X107315000Y-73660000D03*
%TD*%
D13*
%TO.C,PT6*%
X163830000Y-61275000D03*
D14*
X171330000Y-58975000D03*
X171330000Y-53975000D03*
D13*
X163830000Y-51675000D03*
D15*
X169729800Y-59015000D03*
D16*
X171330000Y-56475000D03*
D17*
X169755200Y-54062000D03*
%TD*%
D10*
%TO.C,J1*%
X104775000Y-58420000D03*
X104775000Y-60960000D03*
D11*
X107315000Y-58420000D03*
D12*
X107315000Y-60960000D03*
%TD*%
D18*
%TO.C,D5*%
X175006000Y-55963600D03*
X175006000Y-58013600D03*
%TD*%
D13*
%TO.C,PT2*%
X147320000Y-61263600D03*
D14*
X154820000Y-58963600D03*
X154820000Y-53963600D03*
D13*
X147320000Y-51663600D03*
D15*
X153219800Y-59003600D03*
D16*
X154820000Y-56463600D03*
D17*
X153245200Y-54050600D03*
%TD*%
D10*
%TO.C,J11*%
X183515000Y-85344000D03*
X183515000Y-82804000D03*
D11*
X180975000Y-85344000D03*
D12*
X180975000Y-82804000D03*
%TD*%
D18*
%TO.C,D6*%
X175006000Y-60036600D03*
X175006000Y-62086600D03*
%TD*%
D13*
%TO.C,PT12*%
X163830000Y-100812000D03*
D14*
X171330000Y-98512000D03*
X171330000Y-93512000D03*
D13*
X163830000Y-91212000D03*
D15*
X169729800Y-98552000D03*
D16*
X171330000Y-96012000D03*
D17*
X169755200Y-93599000D03*
%TD*%
D19*
%TO.C,PT11*%
X121259600Y-86995000D03*
X116179600Y-86995000D03*
D20*
X116179600Y-85572600D03*
D21*
X118719600Y-86995000D03*
D20*
X121259600Y-88442800D03*
%TD*%
D19*
%TO.C,PT9*%
X121310400Y-93319600D03*
X116230400Y-93319600D03*
D20*
X116230400Y-91897200D03*
D21*
X118770400Y-93319600D03*
D20*
X121310400Y-94767400D03*
%TD*%
D22*
%TO.C,D2*%
X137827462Y-81963938D03*
D23*
X139237651Y-78559442D03*
%TD*%
D13*
%TO.C,PT8*%
X147320000Y-100812000D03*
D14*
X154820000Y-98512000D03*
X154820000Y-93512000D03*
D13*
X147320000Y-91212000D03*
D15*
X153219800Y-98552000D03*
D16*
X154820000Y-96012000D03*
D17*
X153245200Y-93599000D03*
%TD*%
D24*
%TO.C,J6*%
X144272000Y-80772000D03*
D25*
X144272000Y-83312000D03*
X144272000Y-85852000D03*
%TD*%
D13*
%TO.C,PT7*%
X130810000Y-100812000D03*
D14*
X138310000Y-98512000D03*
X138310000Y-93512000D03*
D13*
X130810000Y-91212000D03*
D15*
X136709800Y-98552000D03*
D16*
X138310000Y-96012000D03*
D17*
X136735200Y-93599000D03*
%TD*%
D13*
%TO.C,PT1*%
X130810000Y-61275000D03*
D14*
X138310000Y-58975000D03*
X138310000Y-53975000D03*
D13*
X130810000Y-51675000D03*
D15*
X136709800Y-59015000D03*
D16*
X138310000Y-56475000D03*
D17*
X136735200Y-54062000D03*
%TD*%
D13*
%TO.C,PT13*%
X164084000Y-81026000D03*
D14*
X171584000Y-78726000D03*
X171584000Y-73726000D03*
D13*
X164084000Y-71426000D03*
D15*
X169983800Y-78766000D03*
D16*
X171584000Y-76226000D03*
D17*
X170009200Y-73813000D03*
%TD*%
D19*
%TO.C,PT10*%
X116205000Y-99695000D03*
X111125000Y-99695000D03*
D20*
X111125000Y-98272600D03*
D21*
X113665000Y-99695000D03*
D20*
X116205000Y-101142800D03*
%TD*%
D19*
%TO.C,PT5*%
X121285000Y-65405000D03*
X116205000Y-65405000D03*
D20*
X116205000Y-63982600D03*
D21*
X118745000Y-65405000D03*
D20*
X121285000Y-66852800D03*
%TD*%
D26*
%TO.C,C2*%
X117008434Y-70161475D03*
X116214366Y-72078525D03*
%TD*%
D19*
%TO.C,PT4*%
X116205000Y-52705000D03*
X111125000Y-52705000D03*
D20*
X111125000Y-51282600D03*
D21*
X113665000Y-52705000D03*
D20*
X116205000Y-54152800D03*
%TD*%
D10*
%TO.C,J10*%
X183515000Y-94615000D03*
X183515000Y-92075000D03*
D11*
X180975000Y-94615000D03*
D12*
X180975000Y-92075000D03*
%TD*%
D10*
%TO.C,J8*%
X104775000Y-85090000D03*
X104775000Y-87630000D03*
D11*
X107315000Y-85090000D03*
D12*
X107315000Y-87630000D03*
%TD*%
D19*
%TO.C,PT3*%
X121275000Y-59055000D03*
X116195000Y-59055000D03*
D20*
X116195000Y-57632600D03*
D21*
X118735000Y-59055000D03*
D20*
X121275000Y-60502800D03*
%TD*%
D24*
%TO.C,J13*%
X144272000Y-66548000D03*
D25*
X144272000Y-69088000D03*
X144272000Y-71628000D03*
%TD*%
D10*
%TO.C,J4*%
X183515000Y-75565000D03*
X183515000Y-73025000D03*
X183515000Y-70485000D03*
X183515000Y-67945000D03*
D11*
X180975000Y-75565000D03*
D12*
X180975000Y-73025000D03*
X180975000Y-70485000D03*
X180975000Y-67945000D03*
%TD*%
D10*
%TO.C,J9*%
X104775000Y-78740000D03*
X104775000Y-81280000D03*
D11*
X107315000Y-78740000D03*
D12*
X107315000Y-81280000D03*
%TD*%
D10*
%TO.C,J7*%
X104775000Y-91440000D03*
X104775000Y-93980000D03*
D11*
X107315000Y-91440000D03*
D12*
X107315000Y-93980000D03*
%TD*%
D27*
%TO.C,D8*%
X180340000Y-78740000D03*
X178290000Y-78740000D03*
%TD*%
D18*
%TO.C,D3*%
X175006000Y-94479000D03*
X175006000Y-96529000D03*
%TD*%
D27*
%TO.C,D7*%
X180704600Y-64770000D03*
X178654600Y-64770000D03*
%TD*%
D28*
%TO.C,C5*%
X140217366Y-82492525D03*
X141011434Y-80575475D03*
%TD*%
D18*
%TO.C,D4*%
X175006000Y-90288000D03*
X175006000Y-92338000D03*
%TD*%
D29*
%TO.C,D1*%
X119880938Y-70486862D03*
D30*
X118470749Y-73891358D03*
%TD*%
D31*
%TO.C,U1*%
X131826000Y-79945000D03*
X131826000Y-78675000D03*
X131826000Y-77405000D03*
X131826000Y-76135000D03*
X131826000Y-74865000D03*
X131826000Y-73595000D03*
X131826000Y-72325000D03*
X126876000Y-72325000D03*
X126876000Y-73595000D03*
X126876000Y-74865000D03*
X126876000Y-76135000D03*
X126876000Y-77405000D03*
X126876000Y-78675000D03*
X126876000Y-79945000D03*
%TD*%
D10*
%TO.C,J2*%
X104775000Y-64770000D03*
X104775000Y-67310000D03*
D11*
X107315000Y-64770000D03*
D12*
X107315000Y-67310000D03*
%TD*%
D32*
%TO.C,M1*%
X183066027Y-99093972D03*
X183061027Y-53183972D03*
X105446027Y-53183972D03*
X105410000Y-99060000D03*
%TD*%
M02*
