M48
; DRILL file {KiCad 7.0.1} date Sun Sep  3 00:34:57 2023
; FORMAT={-:-/ absolute / metric / decimal}
; #@! TF.CreationDate,2023-09-03T00:34:57+01:00
; #@! TF.GenerationSoftware,Kicad,Pcbnew,7.0.1
; #@! TF.FileFunction,Plated,1,4,PTH
FMAT,2
METRIC
; #@! TA.AperFunction,Plated,PTH,ViaDrill
T1C0.400
; #@! TA.AperFunction,Plated,PTH,ComponentDrill
T2C0.400
; #@! TA.AperFunction,Plated,PTH,ComponentDrill
T3C0.500
; #@! TA.AperFunction,Plated,PTH,ComponentDrill
T4C0.800
; #@! TA.AperFunction,Plated,PTH,ComponentDrill
T5C1.000
; #@! TA.AperFunction,Plated,PTH,ComponentDrill
T6C1.100
; #@! TA.AperFunction,Plated,PTH,ComponentDrill
T7C1.800
%
G90
G05
T1
X111.15Y-54.864
X111.277Y-101.854
X113.944Y-73.406
X114.431Y-89.217
X115.595Y-89.154
X115.976Y-61.087
X116.103Y-67.437
X117.704Y-94.793
X118.059Y-97.688
X118.669Y-77.622
X119.872Y-50.419
X120.396Y-77.876
X121.31Y-62.357
X121.634Y-57.023
X122.072Y-53.797
X123.723Y-56.515
X123.85Y-62.484
X124.192Y-68.639
X125.078Y-53.127
X125.374Y-101.6
X126.238Y-96.266
X126.644Y-90.17
X126.898Y-68.326
X127.37Y-70.7
X127.481Y-92.175
X127.533Y-65.024
X127.656Y-87.579
X127.759Y-62.005
X127.778Y-73.921
X128.016Y-57.912
X128.016Y-84.43
X128.397Y-94.132
X128.428Y-79.047
X128.549Y-50.927
X129.311Y-77.47
X129.402Y-74.622
X129.565Y-55.118
X130.302Y-56.642
X130.337Y-76.093
X132.371Y-71.12
X132.675Y-81.345
X132.817Y-65.659
X132.929Y-85.09
X132.994Y-87.503
X135.788Y-89.916
X136.042Y-83.755
X136.244Y-68.751
X136.906Y-67.31
X137.008Y-52.513
X137.9Y-85.645
X138.201Y-91.215
X138.582Y-72.771
X140.425Y-53.157
X140.43Y-70.037
X140.43Y-85.852
X140.741Y-77.089
X140.995Y-99.949
X141.815Y-64.179
X141.884Y-89.916
X142.545Y-61.468
X145.44Y-52.904
X145.821Y-93.282
X146.05Y-77.978
X147.599Y-73.914
X147.599Y-98.298
X148.041Y-97.401
X148.234Y-77.851
X149.052Y-78.427
X149.094Y-75.057
X149.123Y-73.025
X150.647Y-69.215
X151.79Y-52.324
X151.892Y-62.23
X151.899Y-90.932
X152.146Y-68.239
X152.933Y-69.342
X156.17Y-99.862
X156.235Y-81.661
X156.339Y-91.718
X157.378Y-51.562
X158.775Y-61.087
X159.265Y-78.84
X159.664Y-74.549
X161.804Y-73.934
X162.331Y-98.044
X165.608Y-75.438
X167.335Y-78.562
X168.808Y-62.611
X168.935Y-101.219
X171.221Y-90.805
X171.348Y-62.357
X171.653Y-85.446
X173.99Y-98.298
X174.777Y-54.737
X175.006Y-59.03
X175.92Y-51.435
X176.047Y-97.917
X176.067Y-54.718
X177.292Y-98.298
X179.175Y-80.01
X180.619Y-80.137
X181.864Y-66.04
X185.721Y-97.578
T2
X111.125Y-51.283
X111.125Y-98.273
X116.18Y-85.573
X116.195Y-57.633
X116.205Y-54.153
X116.205Y-63.983
X116.205Y-101.143
X116.23Y-91.897
X121.26Y-88.443
X121.275Y-60.503
X121.285Y-66.853
X121.31Y-94.767
T3
X136.71Y-59.015
X136.71Y-98.552
X136.735Y-54.062
X136.735Y-93.599
X153.22Y-59.004
X153.22Y-98.552
X153.245Y-54.051
X153.245Y-93.599
X169.73Y-59.015
X169.73Y-98.552
X169.755Y-54.062
X169.755Y-93.599
X169.984Y-78.766
X170.009Y-73.813
T4
X111.125Y-52.705
X111.125Y-99.695
X113.665Y-52.705
X113.665Y-99.695
X116.18Y-86.995
X116.195Y-59.055
X116.205Y-52.705
X116.205Y-65.405
X116.205Y-99.695
X116.23Y-93.32
X118.72Y-86.995
X118.735Y-59.055
X118.745Y-65.405
X118.77Y-93.32
X121.26Y-86.995
X121.275Y-59.055
X121.285Y-65.405
X121.31Y-93.32
T5
X138.31Y-53.975
X138.31Y-56.475
X138.31Y-58.975
X138.31Y-93.512
X138.31Y-96.012
X138.31Y-98.512
X144.272Y-66.548
X144.272Y-69.088
X144.272Y-71.628
X144.272Y-80.772
X144.272Y-83.312
X144.272Y-85.852
X154.82Y-53.964
X154.82Y-56.464
X154.82Y-58.964
X154.82Y-93.512
X154.82Y-96.012
X154.82Y-98.512
X171.33Y-53.975
X171.33Y-56.475
X171.33Y-58.975
X171.33Y-93.512
X171.33Y-96.012
X171.33Y-98.512
X171.584Y-73.726
X171.584Y-76.226
X171.584Y-78.726
T6
X107.315Y-58.42
X107.315Y-60.96
X107.315Y-64.77
X107.315Y-67.31
X107.315Y-71.12
X107.315Y-73.66
X107.315Y-78.74
X107.315Y-81.28
X107.315Y-85.09
X107.315Y-87.63
X107.315Y-91.44
X107.315Y-93.98
X180.975Y-57.658
X180.975Y-60.198
X180.975Y-67.945
X180.975Y-70.485
X180.975Y-73.025
X180.975Y-75.565
X180.975Y-82.804
X180.975Y-85.344
X180.975Y-92.075
X180.975Y-94.615
T7
X130.81Y-51.675
X130.81Y-61.275
X130.81Y-91.212
X130.81Y-100.812
X147.32Y-51.664
X147.32Y-61.264
X147.32Y-91.212
X147.32Y-100.812
X163.83Y-51.675
X163.83Y-61.275
X163.83Y-91.212
X163.83Y-100.812
X164.084Y-71.426
X164.084Y-81.026
T0
M30
