%TF.GenerationSoftware,KiCad,Pcbnew,7.0.1*%
%TF.CreationDate,2023-09-03T00:34:55+01:00*%
%TF.ProjectId,noise-synth-card,6e6f6973-652d-4737-996e-74682d636172,rev?*%
%TF.SameCoordinates,Original*%
%TF.FileFunction,Soldermask,Bot*%
%TF.FilePolarity,Negative*%
%FSLAX46Y46*%
G04 Gerber Fmt 4.6, Leading zero omitted, Abs format (unit mm)*
G04 Created by KiCad (PCBNEW 7.0.1) date 2023-09-03 00:34:55*
%MOMM*%
%LPD*%
G01*
G04 APERTURE LIST*
G04 Aperture macros list*
%AMRoundRect*
0 Rectangle with rounded corners*
0 $1 Rounding radius*
0 $2 $3 $4 $5 $6 $7 $8 $9 X,Y pos of 4 corners*
0 Add a 4 corners polygon primitive as box body*
4,1,4,$2,$3,$4,$5,$6,$7,$8,$9,$2,$3,0*
0 Add four circle primitives for the rounded corners*
1,1,$1+$1,$2,$3*
1,1,$1+$1,$4,$5*
1,1,$1+$1,$6,$7*
1,1,$1+$1,$8,$9*
0 Add four rect primitives between the rounded corners*
20,1,$1+$1,$2,$3,$4,$5,0*
20,1,$1+$1,$4,$5,$6,$7,0*
20,1,$1+$1,$6,$7,$8,$9,0*
20,1,$1+$1,$8,$9,$2,$3,0*%
G04 Aperture macros list end*
%ADD10C,1.100000*%
%ADD11R,2.200000X2.200000*%
%ADD12C,2.200000*%
%ADD13C,3.240000*%
%ADD14R,1.800000X1.800000*%
%ADD15R,0.900000X0.899998*%
%ADD16R,0.899998X0.899994*%
%ADD17C,1.800000*%
%ADD18R,1.440000X1.440000*%
%ADD19R,1.020872X0.520869*%
%ADD20R,1.000000X1.000000*%
%ADD21C,1.440000*%
%ADD22R,1.000000X0.499998*%
%ADD23R,1.700000X1.700000*%
%ADD24O,1.700000X1.700000*%
%ADD25RoundRect,0.150000X-0.825000X-0.150000X0.825000X-0.150000X0.825000X0.150000X-0.825000X0.150000X0*%
%ADD26RoundRect,0.250000X-0.350000X-0.450000X0.350000X-0.450000X0.350000X0.450000X-0.350000X0.450000X0*%
%ADD27RoundRect,0.250000X0.337500X0.475000X-0.337500X0.475000X-0.337500X-0.475000X0.337500X-0.475000X0*%
%ADD28RoundRect,0.150000X-0.150000X0.587500X-0.150000X-0.587500X0.150000X-0.587500X0.150000X0.587500X0*%
%ADD29RoundRect,0.250000X0.350000X0.450000X-0.350000X0.450000X-0.350000X-0.450000X0.350000X-0.450000X0*%
%ADD30RoundRect,0.250000X-0.337500X-0.475000X0.337500X-0.475000X0.337500X0.475000X-0.337500X0.475000X0*%
%ADD31C,3.200000*%
%ADD32RoundRect,0.150000X0.150000X-0.587500X0.150000X0.587500X-0.150000X0.587500X-0.150000X-0.587500X0*%
G04 APERTURE END LIST*
D10*
%TO.C,J5*%
X183515000Y-60198000D03*
X183515000Y-57658000D03*
D11*
X180975000Y-60198000D03*
D12*
X180975000Y-57658000D03*
%TD*%
D10*
%TO.C,J3*%
X104775000Y-71120000D03*
X104775000Y-73660000D03*
D11*
X107315000Y-71120000D03*
D12*
X107315000Y-73660000D03*
%TD*%
D13*
%TO.C,PT6*%
X163830000Y-61275000D03*
D14*
X171330000Y-58975000D03*
X171330000Y-53975000D03*
D13*
X163830000Y-51675000D03*
D15*
X169729800Y-59015000D03*
D16*
X171279200Y-52411000D03*
D17*
X171330000Y-56475000D03*
D16*
X171431600Y-60564400D03*
X169755200Y-54062000D03*
%TD*%
D10*
%TO.C,J1*%
X104775000Y-58420000D03*
X104775000Y-60960000D03*
D11*
X107315000Y-58420000D03*
D12*
X107315000Y-60960000D03*
%TD*%
D13*
%TO.C,PT2*%
X147320000Y-61263600D03*
D14*
X154820000Y-58963600D03*
X154820000Y-53963600D03*
D13*
X147320000Y-51663600D03*
D15*
X153219800Y-59003600D03*
D16*
X154769200Y-52399600D03*
D17*
X154820000Y-56463600D03*
D16*
X154921600Y-60553000D03*
X153245200Y-54050600D03*
%TD*%
D10*
%TO.C,J11*%
X183515000Y-85344000D03*
X183515000Y-82804000D03*
D11*
X180975000Y-85344000D03*
D12*
X180975000Y-82804000D03*
%TD*%
D13*
%TO.C,PT12*%
X163830000Y-100812000D03*
D14*
X171330000Y-98512000D03*
X171330000Y-93512000D03*
D13*
X163830000Y-91212000D03*
D15*
X169729800Y-98552000D03*
D16*
X171279200Y-91948000D03*
D17*
X171330000Y-96012000D03*
D16*
X171431600Y-100101400D03*
X169755200Y-93599000D03*
%TD*%
D18*
%TO.C,PT11*%
X121259600Y-86995000D03*
X116179600Y-86995000D03*
D19*
X121244636Y-85812162D03*
D20*
X116179600Y-85572600D03*
D21*
X118719600Y-86995000D03*
D20*
X121259600Y-88442800D03*
D22*
X116205000Y-88184799D03*
%TD*%
D18*
%TO.C,PT9*%
X121310400Y-93319600D03*
X116230400Y-93319600D03*
D19*
X121295436Y-92136762D03*
D20*
X116230400Y-91897200D03*
D21*
X118770400Y-93319600D03*
D20*
X121310400Y-94767400D03*
D22*
X116255800Y-94509399D03*
%TD*%
D13*
%TO.C,PT8*%
X147320000Y-100812000D03*
D14*
X154820000Y-98512000D03*
X154820000Y-93512000D03*
D13*
X147320000Y-91212000D03*
D15*
X153219800Y-98552000D03*
D16*
X154769200Y-91948000D03*
D17*
X154820000Y-96012000D03*
D16*
X154921600Y-100101400D03*
X153245200Y-93599000D03*
%TD*%
D23*
%TO.C,J6*%
X144272000Y-80772000D03*
D24*
X144272000Y-83312000D03*
X144272000Y-85852000D03*
%TD*%
D13*
%TO.C,PT7*%
X130810000Y-100812000D03*
D14*
X138310000Y-98512000D03*
X138310000Y-93512000D03*
D13*
X130810000Y-91212000D03*
D15*
X136709800Y-98552000D03*
D16*
X138259200Y-91948000D03*
D17*
X138310000Y-96012000D03*
D16*
X138411600Y-100101400D03*
X136735200Y-93599000D03*
%TD*%
D13*
%TO.C,PT1*%
X130810000Y-61275000D03*
D14*
X138310000Y-58975000D03*
X138310000Y-53975000D03*
D13*
X130810000Y-51675000D03*
D15*
X136709800Y-59015000D03*
D16*
X138259200Y-52411000D03*
D17*
X138310000Y-56475000D03*
D16*
X138411600Y-60564400D03*
X136735200Y-54062000D03*
%TD*%
D13*
%TO.C,PT13*%
X164084000Y-81026000D03*
D14*
X171584000Y-78726000D03*
X171584000Y-73726000D03*
D13*
X164084000Y-71426000D03*
D15*
X169983800Y-78766000D03*
D16*
X171533200Y-72162000D03*
D17*
X171584000Y-76226000D03*
D16*
X171685600Y-80315400D03*
X170009200Y-73813000D03*
%TD*%
D18*
%TO.C,PT10*%
X116205000Y-99695000D03*
X111125000Y-99695000D03*
D19*
X116190036Y-98512162D03*
D20*
X111125000Y-98272600D03*
D21*
X113665000Y-99695000D03*
D20*
X116205000Y-101142800D03*
D22*
X111150400Y-100884799D03*
%TD*%
D18*
%TO.C,PT5*%
X121285000Y-65405000D03*
X116205000Y-65405000D03*
D19*
X121270036Y-64222162D03*
D20*
X116205000Y-63982600D03*
D21*
X118745000Y-65405000D03*
D20*
X121285000Y-66852800D03*
D22*
X116230400Y-66594799D03*
%TD*%
D18*
%TO.C,PT4*%
X116205000Y-52705000D03*
X111125000Y-52705000D03*
D19*
X116190036Y-51522162D03*
D20*
X111125000Y-51282600D03*
D21*
X113665000Y-52705000D03*
D20*
X116205000Y-54152800D03*
D22*
X111150400Y-53894799D03*
%TD*%
D10*
%TO.C,J10*%
X183515000Y-94615000D03*
X183515000Y-92075000D03*
D11*
X180975000Y-94615000D03*
D12*
X180975000Y-92075000D03*
%TD*%
D10*
%TO.C,J8*%
X104775000Y-85090000D03*
X104775000Y-87630000D03*
D11*
X107315000Y-85090000D03*
D12*
X107315000Y-87630000D03*
%TD*%
D18*
%TO.C,PT3*%
X121275000Y-59055000D03*
X116195000Y-59055000D03*
D19*
X121260036Y-57872162D03*
D20*
X116195000Y-57632600D03*
D21*
X118735000Y-59055000D03*
D20*
X121275000Y-60502800D03*
D22*
X116220400Y-60244799D03*
%TD*%
D23*
%TO.C,J13*%
X144272000Y-66548000D03*
D24*
X144272000Y-69088000D03*
X144272000Y-71628000D03*
%TD*%
D10*
%TO.C,J4*%
X183515000Y-75565000D03*
X183515000Y-73025000D03*
X183515000Y-70485000D03*
X183515000Y-67945000D03*
D11*
X180975000Y-75565000D03*
D12*
X180975000Y-73025000D03*
X180975000Y-70485000D03*
X180975000Y-67945000D03*
%TD*%
D10*
%TO.C,J9*%
X104775000Y-78740000D03*
X104775000Y-81280000D03*
D11*
X107315000Y-78740000D03*
D12*
X107315000Y-81280000D03*
%TD*%
D10*
%TO.C,J7*%
X104775000Y-91440000D03*
X104775000Y-93980000D03*
D11*
X107315000Y-91440000D03*
D12*
X107315000Y-93980000D03*
%TD*%
D10*
%TO.C,J2*%
X104775000Y-64770000D03*
X104775000Y-67310000D03*
D11*
X107315000Y-64770000D03*
D12*
X107315000Y-67310000D03*
%TD*%
D25*
%TO.C,U4*%
X150752000Y-80010000D03*
X150752000Y-78740000D03*
X150752000Y-77470000D03*
X150752000Y-76200000D03*
X150752000Y-74930000D03*
X150752000Y-73660000D03*
X150752000Y-72390000D03*
X155702000Y-72390000D03*
X155702000Y-73660000D03*
X155702000Y-74930000D03*
X155702000Y-76200000D03*
X155702000Y-77470000D03*
X155702000Y-78740000D03*
X155702000Y-80010000D03*
%TD*%
D26*
%TO.C,R30*%
X174498000Y-96012000D03*
X176498000Y-96012000D03*
%TD*%
D27*
%TO.C,C11*%
X140505000Y-68326000D03*
X138430000Y-68326000D03*
%TD*%
%TO.C,C3*%
X116078000Y-76200000D03*
X114003000Y-76200000D03*
%TD*%
%TO.C,C10*%
X160528000Y-76200000D03*
X158453000Y-76200000D03*
%TD*%
D28*
%TO.C,Q2*%
X123190000Y-50800000D03*
X125090000Y-50800000D03*
X124140000Y-52675000D03*
%TD*%
D29*
%TO.C,R13*%
X140430000Y-65786000D03*
X138430000Y-65786000D03*
%TD*%
%TO.C,R21*%
X142970000Y-98552000D03*
X140970000Y-98552000D03*
%TD*%
D27*
%TO.C,C12*%
X140505000Y-84328000D03*
X138430000Y-84328000D03*
%TD*%
D26*
%TO.C,R12*%
X124238000Y-66802000D03*
X126238000Y-66802000D03*
%TD*%
D30*
%TO.C,C6*%
X124206000Y-83058000D03*
X126281000Y-83058000D03*
%TD*%
D25*
%TO.C,U3*%
X129670000Y-87565000D03*
X129670000Y-86295000D03*
X129670000Y-85025000D03*
X129670000Y-83755000D03*
X129670000Y-82485000D03*
X129670000Y-81215000D03*
X129670000Y-79945000D03*
X134620000Y-79945000D03*
X134620000Y-81215000D03*
X134620000Y-82485000D03*
X134620000Y-83755000D03*
X134620000Y-85025000D03*
X134620000Y-86295000D03*
X134620000Y-87565000D03*
%TD*%
D31*
%TO.C,M1*%
X183066027Y-99093972D03*
X183061027Y-53183972D03*
X105446027Y-53183972D03*
X105410000Y-99060000D03*
%TD*%
D26*
%TO.C,R33*%
X124206000Y-80264000D03*
X126206000Y-80264000D03*
%TD*%
D29*
%TO.C,R41*%
X185420000Y-64770000D03*
X183420000Y-64770000D03*
%TD*%
%TO.C,R22*%
X159480000Y-99060000D03*
X157480000Y-99060000D03*
%TD*%
D28*
%TO.C,Q4*%
X123190000Y-99314000D03*
X125090000Y-99314000D03*
X124140000Y-101189000D03*
%TD*%
D26*
%TO.C,R1*%
X140995400Y-51435000D03*
X142995400Y-51435000D03*
%TD*%
%TO.C,R29*%
X124206000Y-88900000D03*
X126206000Y-88900000D03*
%TD*%
%TO.C,R19*%
X138430000Y-74168000D03*
X140430000Y-74168000D03*
%TD*%
%TO.C,R24*%
X111030000Y-95885000D03*
X113030000Y-95885000D03*
%TD*%
%TO.C,R34*%
X131096000Y-77470000D03*
X133096000Y-77470000D03*
%TD*%
%TO.C,R28*%
X124206000Y-93726000D03*
X126206000Y-93726000D03*
%TD*%
%TO.C,R7*%
X140970000Y-57150000D03*
X142970000Y-57150000D03*
%TD*%
D32*
%TO.C,Q3*%
X120772000Y-101189000D03*
X118872000Y-101189000D03*
X119822000Y-99314000D03*
%TD*%
D26*
%TO.C,R4*%
X111760000Y-68072000D03*
X113760000Y-68072000D03*
%TD*%
%TO.C,R37*%
X142154400Y-76200000D03*
X144154400Y-76200000D03*
%TD*%
D27*
%TO.C,C9*%
X120185000Y-76200000D03*
X118110000Y-76200000D03*
%TD*%
D26*
%TO.C,TH3*%
X111665000Y-64770000D03*
X113665000Y-64770000D03*
%TD*%
D29*
%TO.C,R40*%
X175904400Y-53340000D03*
X173904400Y-53340000D03*
%TD*%
%TO.C,R32*%
X140430000Y-78740000D03*
X138430000Y-78740000D03*
%TD*%
D26*
%TO.C,R5*%
X111506000Y-61722000D03*
X113506000Y-61722000D03*
%TD*%
D29*
%TO.C,TH4*%
X142970000Y-54356000D03*
X140970000Y-54356000D03*
%TD*%
%TO.C,R39*%
X176498000Y-100314000D03*
X174498000Y-100314000D03*
%TD*%
D26*
%TO.C,R11*%
X173990000Y-56388000D03*
X175990000Y-56388000D03*
%TD*%
%TO.C,R8*%
X119634000Y-55118000D03*
X121634000Y-55118000D03*
%TD*%
D29*
%TO.C,TH5*%
X159480000Y-93218000D03*
X157480000Y-93218000D03*
%TD*%
D25*
%TO.C,U2*%
X129670000Y-73660000D03*
X129670000Y-72390000D03*
X129670000Y-71120000D03*
X129670000Y-69850000D03*
X129670000Y-68580000D03*
X129670000Y-67310000D03*
X129670000Y-66040000D03*
X134620000Y-66040000D03*
X134620000Y-67310000D03*
X134620000Y-68580000D03*
X134620000Y-69850000D03*
X134620000Y-71120000D03*
X134620000Y-72390000D03*
X134620000Y-73660000D03*
%TD*%
D26*
%TO.C,R26*%
X140970000Y-95504000D03*
X142970000Y-95504000D03*
%TD*%
%TO.C,R6*%
X157480000Y-55880000D03*
X159480000Y-55880000D03*
%TD*%
%TO.C,R20*%
X140970000Y-101346000D03*
X142970000Y-101346000D03*
%TD*%
D29*
%TO.C,R17*%
X126238000Y-63754000D03*
X124238000Y-63754000D03*
%TD*%
D26*
%TO.C,R23*%
X111030000Y-86360000D03*
X113030000Y-86360000D03*
%TD*%
%TO.C,TH6*%
X111039400Y-92710000D03*
X113039400Y-92710000D03*
%TD*%
D27*
%TO.C,C7*%
X126238000Y-69850000D03*
X124163000Y-69850000D03*
%TD*%
D26*
%TO.C,TH7*%
X111030000Y-89535000D03*
X113030000Y-89535000D03*
%TD*%
%TO.C,R9*%
X124238000Y-55118000D03*
X126238000Y-55118000D03*
%TD*%
D27*
%TO.C,C1*%
X148082000Y-76200000D03*
X146007000Y-76200000D03*
%TD*%
%TO.C,C4*%
X126238000Y-72898000D03*
X124163000Y-72898000D03*
%TD*%
D26*
%TO.C,R25*%
X157480000Y-96012000D03*
X159480000Y-96012000D03*
%TD*%
D29*
%TO.C,TH1*%
X159480000Y-53086000D03*
X157480000Y-53086000D03*
%TD*%
D26*
%TO.C,R42*%
X183388000Y-78740000D03*
X185388000Y-78740000D03*
%TD*%
D29*
%TO.C,R35*%
X140430000Y-87122000D03*
X138430000Y-87122000D03*
%TD*%
D26*
%TO.C,TH2*%
X111506000Y-58674000D03*
X113506000Y-58674000D03*
%TD*%
D29*
%TO.C,R16*%
X140430000Y-71374000D03*
X138430000Y-71374000D03*
%TD*%
%TO.C,R2*%
X142970000Y-59944000D03*
X140970000Y-59944000D03*
%TD*%
D26*
%TO.C,R18*%
X142494000Y-62992000D03*
X144494000Y-62992000D03*
%TD*%
D29*
%TO.C,R36*%
X126206000Y-77470000D03*
X124206000Y-77470000D03*
%TD*%
%TO.C,R15*%
X140430000Y-62992000D03*
X138430000Y-62992000D03*
%TD*%
D27*
%TO.C,C8*%
X126281000Y-85852000D03*
X124206000Y-85852000D03*
%TD*%
D26*
%TO.C,R10*%
X124206000Y-60452000D03*
X126206000Y-60452000D03*
%TD*%
D29*
%TO.C,R3*%
X159480000Y-58801000D03*
X157480000Y-58801000D03*
%TD*%
%TO.C,R31*%
X140430000Y-81534000D03*
X138430000Y-81534000D03*
%TD*%
D28*
%TO.C,Q1*%
X118872000Y-50800000D03*
X120772000Y-50800000D03*
X119822000Y-52675000D03*
%TD*%
D26*
%TO.C,R38*%
X138430000Y-89916000D03*
X140430000Y-89916000D03*
%TD*%
D29*
%TO.C,R14*%
X126206000Y-57912000D03*
X124206000Y-57912000D03*
%TD*%
D26*
%TO.C,TH8*%
X140970000Y-92456000D03*
X142970000Y-92456000D03*
%TD*%
%TO.C,R27*%
X120555000Y-97155000D03*
X122555000Y-97155000D03*
%TD*%
M02*
