M48
; DRILL file {KiCad 7.0.1} date Sun Sep  3 00:34:57 2023
; FORMAT={-:-/ absolute / metric / decimal}
; #@! TF.CreationDate,2023-09-03T00:34:57+01:00
; #@! TF.GenerationSoftware,Kicad,Pcbnew,7.0.1
; #@! TF.FileFunction,NonPlated,1,4,NPTH
FMAT,2
METRIC
; #@! TA.AperFunction,NonPlated,NPTH,ComponentDrill
T1C1.100
; #@! TA.AperFunction,NonPlated,NPTH,ComponentDrill
T2C3.200
%
G90
G05
T1
X104.775Y-58.42
X104.775Y-60.96
X104.775Y-64.77
X104.775Y-67.31
X104.775Y-71.12
X104.775Y-73.66
X104.775Y-78.74
X104.775Y-81.28
X104.775Y-85.09
X104.775Y-87.63
X104.775Y-91.44
X104.775Y-93.98
X183.515Y-57.658
X183.515Y-60.198
X183.515Y-67.945
X183.515Y-70.485
X183.515Y-73.025
X183.515Y-75.565
X183.515Y-82.804
X183.515Y-85.344
X183.515Y-92.075
X183.515Y-94.615
T2
X105.41Y-99.06
X105.446Y-53.184
X183.061Y-53.184
X183.066Y-99.094
T0
M30
