%TF.GenerationSoftware,KiCad,Pcbnew,7.0.1*%
%TF.CreationDate,2023-09-03T00:34:55+01:00*%
%TF.ProjectId,noise-synth-card,6e6f6973-652d-4737-996e-74682d636172,rev?*%
%TF.SameCoordinates,Original*%
%TF.FileFunction,Copper,L2,Inr*%
%TF.FilePolarity,Positive*%
%FSLAX46Y46*%
G04 Gerber Fmt 4.6, Leading zero omitted, Abs format (unit mm)*
G04 Created by KiCad (PCBNEW 7.0.1) date 2023-09-03 00:34:55*
%MOMM*%
%LPD*%
G01*
G04 APERTURE LIST*
%TA.AperFunction,ComponentPad*%
%ADD10R,2.200000X2.200000*%
%TD*%
%TA.AperFunction,ComponentPad*%
%ADD11C,2.200000*%
%TD*%
%TA.AperFunction,ComponentPad*%
%ADD12C,3.240000*%
%TD*%
%TA.AperFunction,ComponentPad*%
%ADD13R,1.800000X1.800000*%
%TD*%
%TA.AperFunction,ComponentPad*%
%ADD14R,0.900000X0.899998*%
%TD*%
%TA.AperFunction,ComponentPad*%
%ADD15C,1.800000*%
%TD*%
%TA.AperFunction,ComponentPad*%
%ADD16R,0.899998X0.899994*%
%TD*%
%TA.AperFunction,ComponentPad*%
%ADD17R,1.440000X1.440000*%
%TD*%
%TA.AperFunction,ComponentPad*%
%ADD18R,1.000000X1.000000*%
%TD*%
%TA.AperFunction,ComponentPad*%
%ADD19C,1.440000*%
%TD*%
%TA.AperFunction,ComponentPad*%
%ADD20R,1.700000X1.700000*%
%TD*%
%TA.AperFunction,ComponentPad*%
%ADD21O,1.700000X1.700000*%
%TD*%
%TA.AperFunction,ViaPad*%
%ADD22C,0.800000*%
%TD*%
%TA.AperFunction,Conductor*%
%ADD23C,0.500000*%
%TD*%
%TA.AperFunction,Conductor*%
%ADD24C,1.000000*%
%TD*%
G04 APERTURE END LIST*
D10*
%TO.N,GND*%
%TO.C,J5*%
X180975000Y-60198000D03*
D11*
%TO.N,/VCO-saw-square-0/VCO_OUT*%
X180975000Y-57658000D03*
%TD*%
D10*
%TO.N,GND*%
%TO.C,J3*%
X107315000Y-71120000D03*
D11*
%TO.N,Net-(J3-signal)*%
X107315000Y-73660000D03*
%TD*%
D12*
%TO.N,*%
%TO.C,PT6*%
X163830000Y-61275000D03*
D13*
X171330000Y-58975000D03*
X171330000Y-53975000D03*
D12*
X163830000Y-51675000D03*
D14*
%TO.N,-12V*%
X169729800Y-59015000D03*
D15*
%TO.N,Net-(PT6-Pad2)*%
X171330000Y-56475000D03*
D16*
%TO.N,+12V*%
X169755200Y-54062000D03*
%TD*%
D10*
%TO.N,GND*%
%TO.C,J1*%
X107315000Y-58420000D03*
D11*
%TO.N,Net-(J1-signal)*%
X107315000Y-60960000D03*
%TD*%
D12*
%TO.N,*%
%TO.C,PT2*%
X147320000Y-61263600D03*
D13*
X154820000Y-58963600D03*
X154820000Y-53963600D03*
D12*
X147320000Y-51663600D03*
D14*
%TO.N,GND*%
X153219800Y-59003600D03*
D15*
%TO.N,Net-(PT2-Pad2)*%
X154820000Y-56463600D03*
D16*
%TO.N,Net-(PT2-Pad3)*%
X153245200Y-54050600D03*
%TD*%
D10*
%TO.N,GND*%
%TO.C,J11*%
X180975000Y-85344000D03*
D11*
%TO.N,Net-(J11-signal)*%
X180975000Y-82804000D03*
%TD*%
D12*
%TO.N,*%
%TO.C,PT12*%
X163830000Y-100812000D03*
D13*
X171330000Y-98512000D03*
X171330000Y-93512000D03*
D12*
X163830000Y-91212000D03*
D14*
%TO.N,-12V*%
X169729800Y-98552000D03*
D15*
%TO.N,Net-(PT12-Pad2)*%
X171330000Y-96012000D03*
D16*
%TO.N,+12V*%
X169755200Y-93599000D03*
%TD*%
D17*
%TO.N,*%
%TO.C,PT11*%
X121259600Y-86995000D03*
X116179600Y-86995000D03*
D18*
%TO.N,Net-(PT11-Pad1)*%
X116179600Y-85572600D03*
D19*
X118719600Y-86995000D03*
D18*
%TO.N,Net-(J9-signal)*%
X121259600Y-88442800D03*
%TD*%
D17*
%TO.N,*%
%TO.C,PT9*%
X121310400Y-93319600D03*
X116230400Y-93319600D03*
D18*
%TO.N,Net-(Q3-B)*%
X116230400Y-91897200D03*
D19*
X118770400Y-93319600D03*
D18*
%TO.N,Net-(PT9-Pad3)*%
X121310400Y-94767400D03*
%TD*%
D12*
%TO.N,*%
%TO.C,PT8*%
X147320000Y-100812000D03*
D13*
X154820000Y-98512000D03*
X154820000Y-93512000D03*
D12*
X147320000Y-91212000D03*
D14*
%TO.N,GND*%
X153219800Y-98552000D03*
D15*
%TO.N,Net-(PT8-Pad2)*%
X154820000Y-96012000D03*
D16*
%TO.N,Net-(PT8-Pad3)*%
X153245200Y-93599000D03*
%TD*%
D20*
%TO.N,Net-(J6-saw)*%
%TO.C,J6*%
X144272000Y-80772000D03*
D21*
%TO.N,/VCO-saw-square-1/VCO_OUT*%
X144272000Y-83312000D03*
%TO.N,Net-(J6-square)*%
X144272000Y-85852000D03*
%TD*%
D12*
%TO.N,*%
%TO.C,PT7*%
X130810000Y-100812000D03*
D13*
X138310000Y-98512000D03*
X138310000Y-93512000D03*
D12*
X130810000Y-91212000D03*
D14*
%TO.N,Net-(PT7-Pad1)*%
X136709800Y-98552000D03*
D15*
%TO.N,Net-(PT7-Pad2)*%
X138310000Y-96012000D03*
D16*
%TO.N,Net-(PT7-Pad3)*%
X136735200Y-93599000D03*
%TD*%
D12*
%TO.N,*%
%TO.C,PT1*%
X130810000Y-61275000D03*
D13*
X138310000Y-58975000D03*
X138310000Y-53975000D03*
D12*
X130810000Y-51675000D03*
D14*
%TO.N,Net-(PT1-Pad1)*%
X136709800Y-59015000D03*
D15*
%TO.N,Net-(PT1-Pad2)*%
X138310000Y-56475000D03*
D16*
%TO.N,Net-(PT1-Pad3)*%
X136735200Y-54062000D03*
%TD*%
D12*
%TO.N,*%
%TO.C,PT13*%
X164084000Y-81026000D03*
D13*
X171584000Y-78726000D03*
X171584000Y-73726000D03*
D12*
X164084000Y-71426000D03*
D14*
%TO.N,Net-(U4B--)*%
X169983800Y-78766000D03*
D15*
%TO.N,Net-(U4A-+)*%
X171584000Y-76226000D03*
D16*
%TO.N,Net-(U4C--)*%
X170009200Y-73813000D03*
%TD*%
D17*
%TO.N,*%
%TO.C,PT10*%
X116205000Y-99695000D03*
X111125000Y-99695000D03*
D18*
%TO.N,GND*%
X111125000Y-98272600D03*
D19*
X113665000Y-99695000D03*
D18*
%TO.N,Net-(PT10-Pad3)*%
X116205000Y-101142800D03*
%TD*%
D17*
%TO.N,*%
%TO.C,PT5*%
X121285000Y-65405000D03*
X116205000Y-65405000D03*
D18*
%TO.N,Net-(PT5-Pad1)*%
X116205000Y-63982600D03*
D19*
X118745000Y-65405000D03*
D18*
%TO.N,Net-(J3-signal)*%
X121285000Y-66852800D03*
%TD*%
D17*
%TO.N,*%
%TO.C,PT4*%
X116205000Y-52705000D03*
X111125000Y-52705000D03*
D18*
%TO.N,GND*%
X111125000Y-51282600D03*
D19*
X113665000Y-52705000D03*
D18*
%TO.N,Net-(PT4-Pad3)*%
X116205000Y-54152800D03*
%TD*%
D10*
%TO.N,GND*%
%TO.C,J10*%
X180975000Y-94615000D03*
D11*
%TO.N,/VCO-saw-square-1/VCO_OUT*%
X180975000Y-92075000D03*
%TD*%
D10*
%TO.N,GND*%
%TO.C,J8*%
X107315000Y-85090000D03*
D11*
%TO.N,Net-(J8-signal)*%
X107315000Y-87630000D03*
%TD*%
D17*
%TO.N,*%
%TO.C,PT3*%
X121275000Y-59055000D03*
X116195000Y-59055000D03*
D18*
%TO.N,Net-(Q1-B)*%
X116195000Y-57632600D03*
D19*
X118735000Y-59055000D03*
D18*
%TO.N,Net-(PT3-Pad3)*%
X121275000Y-60502800D03*
%TD*%
D20*
%TO.N,Net-(J13-saw)*%
%TO.C,J13*%
X144272000Y-66548000D03*
D21*
%TO.N,/VCO-saw-square-0/VCO_OUT*%
X144272000Y-69088000D03*
%TO.N,Net-(J13-square)*%
X144272000Y-71628000D03*
%TD*%
D10*
%TO.N,-12V*%
%TO.C,J4*%
X180975000Y-75565000D03*
D11*
%TO.N,GND*%
X180975000Y-73025000D03*
X180975000Y-70485000D03*
%TO.N,+12V*%
X180975000Y-67945000D03*
%TD*%
D10*
%TO.N,GND*%
%TO.C,J9*%
X107315000Y-78740000D03*
D11*
%TO.N,Net-(J9-signal)*%
X107315000Y-81280000D03*
%TD*%
D10*
%TO.N,GND*%
%TO.C,J7*%
X107315000Y-91440000D03*
D11*
%TO.N,Net-(J7-signal)*%
X107315000Y-93980000D03*
%TD*%
D10*
%TO.N,GND*%
%TO.C,J2*%
X107315000Y-64770000D03*
D11*
%TO.N,Net-(J2-signal)*%
X107315000Y-67310000D03*
%TD*%
D22*
%TO.N,Net-(D1-K)*%
X127369700Y-70699500D03*
X125077544Y-53126919D03*
X127777619Y-73921026D03*
%TO.N,GND*%
X128016000Y-57912000D03*
X175920400Y-51435000D03*
X177292000Y-98298000D03*
X151790399Y-52324001D03*
X140430000Y-70037500D03*
X126238000Y-96266000D03*
X151899298Y-90932000D03*
X159265438Y-78840000D03*
X120396000Y-77876400D03*
X128549400Y-50927000D03*
X124192250Y-68639046D03*
X130302000Y-56642000D03*
X113944400Y-73406000D03*
X138582400Y-72771000D03*
X179175000Y-80010000D03*
X146050000Y-77978000D03*
X140430000Y-85852000D03*
%TO.N,+12V*%
X151892002Y-62230000D03*
X171348400Y-62357000D03*
X129565400Y-55118000D03*
X128397000Y-94132400D03*
X149094212Y-75057000D03*
X168935400Y-101219000D03*
X118668800Y-77622400D03*
X145440400Y-52903844D03*
X147599400Y-98298000D03*
X128016000Y-84429600D03*
X127655611Y-87579200D03*
X132370700Y-71120000D03*
X152146000Y-68238500D03*
%TO.N,-12V*%
X171221400Y-90805000D03*
X168808400Y-62611000D03*
X162331400Y-98044000D03*
X118059200Y-97688400D03*
X148040554Y-97401123D03*
X185720901Y-97577622D03*
X158775400Y-61087000D03*
X136243592Y-68750500D03*
X142544800Y-61468000D03*
X122072400Y-53797200D03*
X152933400Y-69342000D03*
X159664400Y-74549000D03*
X150647400Y-69215000D03*
X136042400Y-83755000D03*
%TO.N,Net-(U2C--)*%
X136906000Y-67310000D03*
X176066736Y-54717664D03*
X127758700Y-62004700D03*
%TO.N,Net-(J3-signal)*%
X116103400Y-67437000D03*
%TO.N,Net-(D2-K)*%
X132929000Y-85090000D03*
X125374400Y-101600000D03*
%TO.N,Net-(PT1-Pad1)*%
X137007600Y-52512600D03*
%TO.N,Net-(PT4-Pad3)*%
X111150400Y-54864000D03*
%TO.N,Net-(PT5-Pad1)*%
X121310400Y-62357000D03*
%TO.N,Net-(U2B--)*%
X123723400Y-56515000D03*
X123850400Y-62484000D03*
%TO.N,Net-(R17-Pad1)*%
X141814815Y-64179490D03*
X127533400Y-65024000D03*
%TO.N,unconnected-(U1-Pad4)*%
X132816600Y-65659000D03*
X129401582Y-74621984D03*
X130336766Y-76092616D03*
%TO.N,unconnected-(U1-Pad11)*%
X126898400Y-68326000D03*
%TO.N,Net-(Q1-B)*%
X119872500Y-50419000D03*
X121634000Y-57023000D03*
X140425321Y-53157244D03*
X157378400Y-51562000D03*
%TO.N,Net-(PT3-Pad3)*%
X115976400Y-61087000D03*
%TO.N,Net-(J9-signal)*%
X115595400Y-89154000D03*
%TO.N,Net-(D3-A)*%
X173990000Y-98298000D03*
%TO.N,Net-(J11-signal)*%
X171653200Y-85445600D03*
X149051505Y-78426625D03*
%TO.N,Net-(PT7-Pad1)*%
X138201400Y-91215500D03*
%TO.N,Net-(PT7-Pad3)*%
X140995400Y-99949000D03*
%TO.N,Net-(PT8-Pad3)*%
X156169999Y-99862002D03*
%TO.N,Net-(Q3-B)*%
X127481000Y-92175000D03*
X145821400Y-93282000D03*
X156338798Y-91717602D03*
%TO.N,Net-(PT9-Pad3)*%
X117703600Y-94792800D03*
X114430527Y-89217259D03*
%TO.N,Net-(PT10-Pad3)*%
X111277400Y-101854000D03*
%TO.N,Net-(U3C--)*%
X126644400Y-90170000D03*
X176047400Y-97917000D03*
X132675500Y-81345001D03*
%TO.N,Net-(U3D-+)*%
X137900278Y-85644903D03*
X129311400Y-77470000D03*
%TO.N,Net-(R36-Pad1)*%
X140741400Y-77089000D03*
X128427929Y-79046847D03*
%TO.N,Net-(U3D--)*%
X135788400Y-89916000D03*
X132994400Y-87503000D03*
%TO.N,Net-(D5-K)*%
X174777400Y-54737000D03*
%TO.N,/VCO-saw-square-0/VCO_OUT*%
X147599400Y-73914000D03*
X175006000Y-59029600D03*
%TO.N,/VCO-saw-square-1/VCO_OUT*%
X156235400Y-81661000D03*
%TO.N,Net-(J6-square)*%
X141884400Y-89916000D03*
%TO.N,Net-(U4A-+)*%
X165608000Y-75438000D03*
X148234400Y-77851000D03*
%TO.N,Net-(D7-A)*%
X181864000Y-66040000D03*
%TO.N,Net-(D8-K)*%
X180619400Y-80137000D03*
%TO.N,Net-(U4B--)*%
X149123400Y-73025000D03*
X167334900Y-78562500D03*
%TO.N,Net-(U4C--)*%
X161803809Y-73933591D03*
%TD*%
D23*
%TO.N,Net-(PT11-Pad1)*%
X117297200Y-85572600D02*
X116179600Y-85572600D01*
X118719600Y-86995000D02*
X117297200Y-85572600D01*
D24*
%TO.N,GND*%
X159265438Y-78840000D02*
X159265438Y-79488414D01*
X151899298Y-97231298D02*
X151899298Y-90932000D01*
X172178000Y-83346000D02*
X175514000Y-80010000D01*
X113665000Y-99695000D02*
X112245000Y-98275000D01*
X120396000Y-77698600D02*
X116103400Y-73406000D01*
X109118400Y-89636600D02*
X107315000Y-91440000D01*
X146050000Y-77978000D02*
X140430000Y-72358000D01*
X128295400Y-51181000D02*
X128549400Y-50927000D01*
X109115000Y-83284415D02*
X107309415Y-85090000D01*
X109115000Y-80534415D02*
X109115000Y-83284415D01*
X143966000Y-77978000D02*
X140430000Y-81514000D01*
X153220000Y-59015000D02*
X153060400Y-58855400D01*
X140430000Y-81514000D02*
X140430000Y-85852000D01*
X107320585Y-58420000D02*
X107315000Y-58420000D01*
X107315000Y-78740000D02*
X109115000Y-76940000D01*
X146050000Y-77978000D02*
X143966000Y-77978000D01*
X126177916Y-66653380D02*
X124192250Y-68639046D01*
X109321600Y-57348400D02*
X109321600Y-51943000D01*
X109321600Y-51943000D02*
X109982000Y-51282600D01*
X113665000Y-52705000D02*
X112245000Y-51285000D01*
X109115000Y-62970000D02*
X109115000Y-60214415D01*
X107315000Y-71120000D02*
X109115000Y-69320000D01*
X107721400Y-71120000D02*
X107315000Y-71120000D01*
X109115000Y-65223800D02*
X108661200Y-64770000D01*
X109115000Y-76940000D02*
X109115000Y-72513600D01*
D23*
X144466000Y-77978000D02*
X146050000Y-77978000D01*
D24*
X121711296Y-71120000D02*
X107315000Y-71120000D01*
X120396000Y-77876400D02*
X120396000Y-77698600D01*
X124192250Y-74486550D02*
X120802400Y-77876400D01*
X158554237Y-79551201D02*
X159265438Y-78840000D01*
X107309415Y-85090000D02*
X107315000Y-85090000D01*
X107315000Y-64770000D02*
X109115000Y-62970000D01*
X128295400Y-55402928D02*
X128295400Y-51181000D01*
X109115000Y-69320000D02*
X109115000Y-65223800D01*
X107320585Y-85090000D02*
X109118400Y-86887815D01*
X124192250Y-63951078D02*
X124192250Y-68639046D01*
X153220000Y-98552000D02*
X151899298Y-97231298D01*
X112245000Y-51285000D02*
X111125000Y-51285000D01*
X124192250Y-68639046D02*
X121711296Y-71120000D01*
X107315000Y-91440000D02*
X107320585Y-91440000D01*
X120802400Y-77876400D02*
X120396000Y-77876400D01*
X107315000Y-85090000D02*
X107320585Y-85090000D01*
X124192250Y-68639046D02*
X124192250Y-74486550D01*
X108250000Y-58420000D02*
X109321600Y-57348400D01*
X151790399Y-54895795D02*
X151790399Y-52324001D01*
X112245000Y-98275000D02*
X111125000Y-98275000D01*
X146050000Y-77978000D02*
X147623201Y-79551201D01*
X129534472Y-56642000D02*
X128295400Y-55402928D01*
X107315000Y-58420000D02*
X108250000Y-58420000D01*
X116103400Y-73406000D02*
X113944400Y-73406000D01*
X140430000Y-72358000D02*
X140430000Y-70037500D01*
X163123024Y-83346000D02*
X172178000Y-83346000D01*
X109115000Y-60214415D02*
X107320585Y-58420000D01*
X128016000Y-57912000D02*
X128016000Y-60127328D01*
X147623201Y-79551201D02*
X158554237Y-79551201D01*
X107320585Y-91440000D02*
X111125000Y-95244415D01*
X108661200Y-64770000D02*
X107315000Y-64770000D01*
X113665000Y-99695000D02*
X117126700Y-96233300D01*
X117126700Y-96233300D02*
X126205300Y-96233300D01*
D23*
X138582400Y-71885100D02*
X138582400Y-72771000D01*
D24*
X130302000Y-56642000D02*
X129534472Y-56642000D01*
X109118400Y-86887815D02*
X109118400Y-89636600D01*
X129184778Y-66653380D02*
X126177916Y-66653380D01*
X109115000Y-72513600D02*
X107721400Y-71120000D01*
X153060400Y-56165796D02*
X151790399Y-54895795D01*
X111125000Y-95244415D02*
X111125000Y-98272600D01*
X153060400Y-58855400D02*
X153060400Y-56165796D01*
X109982000Y-51282600D02*
X111125000Y-51282600D01*
X159265438Y-78840000D02*
X159265438Y-83565860D01*
X107320585Y-78740000D02*
X109115000Y-80534415D01*
X159265438Y-83565860D02*
X151899298Y-90932000D01*
X128016000Y-60127328D02*
X124192250Y-63951078D01*
X175514000Y-80010000D02*
X179175000Y-80010000D01*
X107315000Y-78740000D02*
X107320585Y-78740000D01*
X140430000Y-70037500D02*
X132568898Y-70037500D01*
X132568898Y-70037500D02*
X129184778Y-66653380D01*
D23*
X140430000Y-70037500D02*
X138582400Y-71885100D01*
D24*
X126205300Y-96233300D02*
X126238000Y-96266000D01*
X159265438Y-79488414D02*
X163123024Y-83346000D01*
D23*
%TO.N,+12V*%
X170498900Y-61507500D02*
X171348400Y-62357000D01*
X128016000Y-84429600D02*
X127655611Y-84789989D01*
X147733423Y-98298000D02*
X150972924Y-101537501D01*
X150972924Y-101537501D02*
X160177076Y-101537501D01*
X147599400Y-98298000D02*
X147733423Y-98298000D01*
X129565400Y-55118000D02*
X130454400Y-55118000D01*
X134010400Y-51562000D02*
X144098556Y-51562000D01*
X185166027Y-99963820D02*
X183910847Y-101219000D01*
X168554400Y-59563000D02*
X171348400Y-62357000D01*
X169755200Y-54062000D02*
X168554400Y-55262800D01*
X151892002Y-62230000D02*
X145440400Y-55778398D01*
X149094212Y-74197187D02*
X149094212Y-75057000D01*
X184565000Y-70050076D02*
X184565000Y-97623097D01*
X168710525Y-61507500D02*
X170498900Y-61507500D01*
X145440400Y-55778398D02*
X145440400Y-52903844D01*
X161979525Y-68238500D02*
X168710525Y-61507500D01*
X152146000Y-68238500D02*
X161979525Y-68238500D01*
X160177076Y-101537501D02*
X162972577Y-98742000D01*
X169856800Y-93599000D02*
X168808400Y-94647400D01*
X149983275Y-70064500D02*
X148273900Y-71773875D01*
X152146000Y-68238500D02*
X152146000Y-68917775D01*
X148273900Y-71773875D02*
X148273900Y-73376875D01*
X144098556Y-51562000D02*
X145440400Y-52903844D01*
X185166027Y-98224124D02*
X185166027Y-99963820D01*
X150999275Y-70064500D02*
X149983275Y-70064500D01*
X162972577Y-98742000D02*
X166458400Y-98742000D01*
X168808400Y-101092000D02*
X168935400Y-101219000D01*
X184565000Y-97623097D02*
X185166027Y-98224124D01*
X127655611Y-84789989D02*
X127655611Y-87579200D01*
X130454400Y-55118000D02*
X134010400Y-51562000D01*
X183602924Y-69088000D02*
X184565000Y-70050076D01*
X168554400Y-55262800D02*
X168554400Y-59563000D01*
X180975000Y-67945000D02*
X176936400Y-67945000D01*
X176936400Y-67945000D02*
X171348400Y-62357000D01*
X168808400Y-94647400D02*
X168808400Y-101092000D01*
X148273900Y-73376875D02*
X149094212Y-74197187D01*
X182118000Y-69088000D02*
X183602924Y-69088000D01*
X180975000Y-67945000D02*
X182118000Y-69088000D01*
X152146000Y-68917775D02*
X150999275Y-70064500D01*
X166458400Y-98742000D02*
X168935400Y-101219000D01*
X183910847Y-101219000D02*
X168935400Y-101219000D01*
%TO.N,-12V*%
X147649898Y-97401123D02*
X148040554Y-97401123D01*
X164908832Y-73528591D02*
X162600184Y-73528591D01*
X149631400Y-69215000D02*
X150647400Y-69215000D01*
X177786000Y-72376000D02*
X166061423Y-72376000D01*
X136668092Y-68326000D02*
X140208000Y-68326000D01*
X162155684Y-73084091D02*
X161129309Y-73084091D01*
X122812402Y-54537202D02*
X122072400Y-53797200D01*
X146532902Y-97401123D02*
X148040554Y-97401123D01*
X151477431Y-100838000D02*
X159537400Y-100838000D01*
X136243592Y-68750500D02*
X136668092Y-68326000D01*
X168808400Y-63398400D02*
X168808400Y-62611000D01*
X136042400Y-83755000D02*
X136042400Y-85793625D01*
X159537400Y-100838000D02*
X162331400Y-98044000D01*
X131729555Y-59055000D02*
X130501798Y-59055000D01*
X134142555Y-61468000D02*
X131729555Y-59055000D01*
X166061423Y-72376000D02*
X164908832Y-73528591D01*
X134525923Y-101600500D02*
X142333525Y-101600500D01*
X180975000Y-75565000D02*
X168808400Y-63398400D01*
X141986000Y-70104000D02*
X141986000Y-71374000D01*
X148040554Y-97401123D02*
X151477431Y-100838000D01*
X161129309Y-73084091D02*
X159664400Y-74549000D01*
X145918400Y-72928000D02*
X149631400Y-69215000D01*
X136042400Y-85793625D02*
X147649898Y-97401123D01*
X162600184Y-73528591D02*
X162155684Y-73084091D01*
X118059200Y-97688400D02*
X130613823Y-97688400D01*
X143540000Y-72928000D02*
X145918400Y-72928000D01*
X130613823Y-97688400D02*
X134525923Y-101600500D01*
X140208000Y-68326000D02*
X141986000Y-70104000D01*
X142333525Y-101600500D02*
X146532902Y-97401123D01*
X142544800Y-61468000D02*
X134142555Y-61468000D01*
X125984000Y-54537202D02*
X122812402Y-54537202D01*
X180975000Y-75565000D02*
X177786000Y-72376000D01*
X158140400Y-74549000D02*
X152933400Y-69342000D01*
X130501798Y-59055000D02*
X125984000Y-54537202D01*
X141986000Y-71374000D02*
X143540000Y-72928000D01*
X159664400Y-74549000D02*
X158140400Y-74549000D01*
%TO.N,Net-(U2C--)*%
X156870804Y-65248000D02*
X169493804Y-52625000D01*
X136906000Y-67310000D02*
X138968000Y-65248000D01*
X173974072Y-52625000D02*
X176066736Y-54717664D01*
X169493804Y-52625000D02*
X173974072Y-52625000D01*
X138968000Y-65248000D02*
X156870804Y-65248000D01*
%TO.N,Net-(PT4-Pad3)*%
X111861600Y-54152800D02*
X111150400Y-54864000D01*
X116205000Y-54152800D02*
X111861600Y-54152800D01*
%TO.N,Net-(PT5-Pad1)*%
X118745000Y-65405000D02*
X121310400Y-62839600D01*
X117322600Y-63982600D02*
X116205000Y-63982600D01*
X121310400Y-62839600D02*
X121310400Y-62357000D01*
X118745000Y-65405000D02*
X117322600Y-63982600D01*
%TO.N,Net-(U2B--)*%
X123723400Y-56515000D02*
X123723400Y-62357000D01*
X123723400Y-62357000D02*
X123850400Y-62484000D01*
%TO.N,Net-(R17-Pad1)*%
X141814815Y-64179490D02*
X128377910Y-64179490D01*
X128377910Y-64179490D02*
X127533400Y-65024000D01*
%TO.N,unconnected-(U1-Pad4)*%
X129401582Y-75157432D02*
X130336766Y-76092616D01*
X129401582Y-74621984D02*
X129401582Y-75157432D01*
%TO.N,Net-(Q1-B)*%
X118735000Y-59055000D02*
X120767000Y-57023000D01*
X120767000Y-57023000D02*
X121634000Y-57023000D01*
X117363400Y-57683400D02*
X116195000Y-57683400D01*
X118735000Y-59055000D02*
X117363400Y-57683400D01*
%TO.N,Net-(PT3-Pad3)*%
X115976400Y-61087000D02*
X116560600Y-60502800D01*
X116560600Y-60502800D02*
X121275000Y-60502800D01*
%TO.N,Net-(J11-signal)*%
X174294800Y-82804000D02*
X171653200Y-85445600D01*
X180975000Y-82804000D02*
X174294800Y-82804000D01*
%TO.N,Net-(PT7-Pad1)*%
X135759800Y-97602001D02*
X135759800Y-92774404D01*
X135759800Y-92774404D02*
X137318704Y-91215500D01*
X136709800Y-98552000D02*
X135759800Y-97602001D01*
X137318704Y-91215500D02*
X138201400Y-91215500D01*
%TO.N,Net-(Q3-B)*%
X127481000Y-92175000D02*
X126492000Y-91186000D01*
X118770400Y-92674600D02*
X118770400Y-93319600D01*
X115560000Y-91973400D02*
X117424200Y-91973400D01*
X126492000Y-91186000D02*
X120259000Y-91186000D01*
X120259000Y-91186000D02*
X118770400Y-92674600D01*
X117424200Y-91973400D02*
X118770400Y-93319600D01*
%TO.N,Net-(PT10-Pad3)*%
X111988600Y-101142800D02*
X111277400Y-101854000D01*
X116205000Y-101142800D02*
X111988600Y-101142800D01*
%TO.N,Net-(U3C--)*%
X132675500Y-84138900D02*
X126644400Y-90170000D01*
X132675500Y-81345001D02*
X132675500Y-84138900D01*
%TO.N,Net-(U3D-+)*%
X137900278Y-80496278D02*
X135268997Y-77864997D01*
X137900278Y-85644903D02*
X137900278Y-80496278D01*
X129706397Y-77864997D02*
X129311400Y-77470000D01*
X135268997Y-77864997D02*
X129706397Y-77864997D01*
%TO.N,Net-(R36-Pad1)*%
X128427929Y-79046847D02*
X128427929Y-77152096D01*
X128427929Y-77152096D02*
X128959525Y-76620500D01*
X128959525Y-76620500D02*
X129663275Y-76620500D01*
X130131775Y-77089000D02*
X140741400Y-77089000D01*
X129663275Y-76620500D02*
X130131775Y-77089000D01*
%TO.N,Net-(U3D--)*%
X132994400Y-87503000D02*
X135407400Y-89916000D01*
X135407400Y-89916000D02*
X135788400Y-89916000D01*
%TO.N,/VCO-saw-square-0/VCO_OUT*%
X176377600Y-57658000D02*
X175006000Y-59029600D01*
X180975000Y-57658000D02*
X176377600Y-57658000D01*
%TO.N,/VCO-saw-square-1/VCO_OUT*%
X144272000Y-83312000D02*
X154584400Y-83312000D01*
X154584400Y-83312000D02*
X156235400Y-81661000D01*
D24*
%TO.N,Net-(J6-square)*%
X144272000Y-85852000D02*
X141884400Y-88239600D01*
X141884400Y-88239600D02*
X141884400Y-89916000D01*
D23*
%TO.N,Net-(U4B--)*%
X170110800Y-78766000D02*
X167538400Y-78766000D01*
X167538400Y-78766000D02*
X167334900Y-78562500D01*
X153988900Y-77890500D02*
X166662900Y-77890500D01*
X166662900Y-77890500D02*
X167334900Y-78562500D01*
X149123400Y-73025000D02*
X153988900Y-77890500D01*
%TO.N,Net-(U4C--)*%
X170110800Y-73813000D02*
X169335618Y-74588182D01*
X169335618Y-74588182D02*
X162458400Y-74588182D01*
X162458400Y-74588182D02*
X161803809Y-73933591D01*
%TD*%
M02*
